<svg width="80" height="80" viewBox="0 0 80 80" fill="none" xmlns="http://www.w3.org/2000/svg">
<rect width="80" height="80" rx="10" fill="white" fill-opacity="0.1"/>
<path fill-rule="evenodd" clip-rule="evenodd" d="M56.3333 21.3334H54V16.6667H49.3333V21.3334H30.6667V16.6667H26V21.3334H23.6667C21.0767 21.3334 19.0233 23.4334 19.0233 26L19 58.6667C19 61.2334 21.0767 63.3334 23.6667 63.3334H56.3333C58.9 63.3334 61 61.2334 61 58.6667V26C61 23.4334 58.9 21.3334 56.3333 21.3334ZM28.3333 37.6667V42.3333H33V37.6667H28.3333ZM42.3333 37.6667H37.6667V42.3333H42.3333V37.6667ZM51.6667 37.6667V42.3333H47V37.6667H51.6667ZM23.6667 58.6667H56.3333V33H23.6667V58.6667Z" fill="white"/>
</svg>
