<svg width="81" height="80" viewBox="0 0 81 80" fill="none" xmlns="http://www.w3.org/2000/svg">
<path fill-rule="evenodd" clip-rule="evenodd" d="M63.8333 13.3334H60.5V6.66669H53.8333V13.3334H27.1667V6.66669H20.5V13.3334H17.1667C13.4667 13.3334 10.5333 16.3334 10.5333 20L10.5 66.6667C10.5 70.3334 13.4667 73.3334 17.1667 73.3334H63.8333C67.5 73.3334 70.5 70.3334 70.5 66.6667V20C70.5 16.3334 67.5 13.3334 63.8333 13.3334ZM30.4999 36.6667H23.8333V43.3334H30.4999V36.6667ZM43.8334 36.6667H37.1667V43.3334H43.8334V36.6667ZM50.5 36.6667H57.1666V43.3334H50.5V36.6667ZM17.1667 66.6667H63.8333V30H17.1667V66.6667Z" fill="white"/>
</svg>
