<svg width="67" height="68" viewBox="0 0 67 68" fill="none" xmlns="http://www.w3.org/2000/svg">
<path fill-rule="evenodd" clip-rule="evenodd" d="M33.4667 0.666626C15.0667 0.666626 0.166672 15.6 0.166672 34C0.166672 52.4 15.0667 67.3333 33.4667 67.3333C51.9 67.3333 66.8333 52.4 66.8333 34C66.8333 15.6 51.9 0.666626 33.4667 0.666626ZM33.5 60.6666C18.7667 60.6666 6.83334 48.7333 6.83334 33.9999C6.83334 19.2666 18.7667 7.33325 33.5 7.33325C48.2333 7.33325 60.1667 19.2666 60.1667 33.9999C60.1667 48.7333 48.2333 60.6666 33.5 60.6666ZM30.1667 17.3333H35.1667V34.8333L50.1667 43.7333L47.6667 47.8333L30.1667 37.3333V17.3333Z" fill="white"/>
</svg>
