<svg width="80" height="80" viewBox="0 0 80 80" fill="none" xmlns="http://www.w3.org/2000/svg">
<rect width="80" height="80" rx="10" fill="white" fill-opacity="0.1"/>
<path fill-rule="evenodd" clip-rule="evenodd" d="M39.9766 16.6667C27.0966 16.6667 16.6666 27.12 16.6666 40C16.6666 52.88 27.0966 63.3334 39.9766 63.3334C52.88 63.3334 63.3333 52.88 63.3333 40C63.3333 27.12 52.88 16.6667 39.9766 16.6667ZM40 58.6667C29.6867 58.6667 21.3333 50.3133 21.3333 40C21.3333 29.6867 29.6867 21.3333 40 21.3333C50.3133 21.3333 58.6667 29.6867 58.6667 40C58.6667 50.3133 50.3133 58.6667 40 58.6667ZM37.6667 28.3333H41.1667V40.5833L51.6667 46.8133L49.9167 49.6833L37.6667 42.3333V28.3333Z" fill="white"/>
</svg>
