<svg width="80" height="80" viewBox="0 0 80 80" fill="none" xmlns="http://www.w3.org/2000/svg">
<rect width="80" height="80" rx="10" fill="white" fill-opacity="0.1"/>
<path fill-rule="evenodd" clip-rule="evenodd" d="M51.6667 19H23.6667C21.0767 19 19 21.1 19 23.6667V56.3333C19 58.9 21.0767 61 23.6667 61H56.3333C58.9 61 61 58.9 61 56.3333V28.3333L51.6667 19ZM40 56.3333C36.1267 56.3333 33 53.2067 33 49.3333C33 45.46 36.1267 42.3333 40 42.3333C43.8733 42.3333 47 45.46 47 49.3333C47 53.2067 43.8733 56.3333 40 56.3333ZM23.6667 33H47V23.6667H23.6667V33Z" fill="white"/>
</svg>
