<svg width="405" height="266" viewBox="0 0 405 266" fill="none" xmlns="http://www.w3.org/2000/svg">
<rect x="111" y="4" width="80" height="80" rx="10" fill="white" fill-opacity="0.1"/>
<path fill-rule="evenodd" clip-rule="evenodd" d="M150.977 20.6667C138.097 20.6667 127.667 31.12 127.667 44C127.667 56.88 138.097 67.3334 150.977 67.3334C163.88 67.3334 174.333 56.88 174.333 44C174.333 31.12 163.88 20.6667 150.977 20.6667ZM151 62.6667C140.687 62.6667 132.333 54.3133 132.333 44C132.333 33.6867 140.687 25.3333 151 25.3333C161.313 25.3333 169.667 33.6867 169.667 44C169.667 54.3133 161.313 62.6667 151 62.6667ZM148.667 32.3333H152.167V44.5833L162.667 50.8133L160.917 53.6833L148.667 46.3333V32.3333Z" fill="white"/>
<rect x="71" y="146" width="80" height="80" rx="10" fill="white" fill-opacity="0.1"/>
<path fill-rule="evenodd" clip-rule="evenodd" d="M122.667 165H94.6667C92.0767 165 90 167.1 90 169.667V202.333C90 204.9 92.0767 207 94.6667 207H127.333C129.9 207 132 204.9 132 202.333V174.333L122.667 165ZM111 202.333C107.127 202.333 104 199.207 104 195.333C104 191.46 107.127 188.333 111 188.333C114.873 188.333 118 191.46 118 195.333C118 199.207 114.873 202.333 111 202.333ZM94.6667 179H118V169.667H94.6667V179Z" fill="white"/>
<rect x="234" y="16" width="80" height="80" rx="10" fill="white" fill-opacity="0.1"/>
<path d="M274 35V59.6167C272.623 58.8233 271.037 58.3333 269.333 58.3333C264.177 58.3333 260 62.51 260 67.6667C260 72.8233 264.177 77 269.333 77C274.49 77 278.667 72.8233 278.667 67.6667V44.3333H288V35H274Z" fill="white"/>
<rect x="7" y="84" width="80" height="80" rx="10" fill="white" fill-opacity="0.1"/>
<path d="M47 145.817L43.6166 142.737C31.6 131.84 23.6666 124.653 23.6666 115.833C23.6666 108.647 29.3133 103 36.5 103C40.56 103 44.4566 104.89 47 107.877C49.5433 104.89 53.44 103 57.5 103C64.6866 103 70.3333 108.647 70.3333 115.833C70.3333 124.653 62.4 131.84 50.3833 142.76L47 145.817Z" fill="white"/>
<rect x="166" y="66" width="80" height="80" rx="10" fill="white" fill-opacity="0.1"/>
<path d="M206 94.3333C193.12 94.3333 182.667 99.56 182.667 106C182.667 111.227 189.527 115.637 199 117.13V124.667L208.333 115.333L199 106V112.37C191.65 111.063 187.333 107.937 187.333 106C187.333 103.527 194.427 99 206 99C217.573 99 224.667 103.527 224.667 106C224.667 107.703 221.26 110.41 215.333 111.903V116.687C223.57 114.89 229.333 110.783 229.333 106C229.333 99.56 218.88 94.3333 206 94.3333Z" fill="white"/>
<rect x="241" y="167" width="80" height="80" rx="10" fill="white" fill-opacity="0.1"/>
<path fill-rule="evenodd" clip-rule="evenodd" d="M297.333 188.333H295V183.667H290.333V188.333H271.667V183.667H267V188.333H264.667C262.077 188.333 260.023 190.433 260.023 193L260 225.667C260 228.233 262.077 230.333 264.667 230.333H297.333C299.9 230.333 302 228.233 302 225.667V193C302 190.433 299.9 188.333 297.333 188.333ZM269.333 204.667V209.333H274V204.667H269.333ZM283.333 204.667H278.667V209.333H283.333V204.667ZM292.667 204.667V209.333H288V204.667H292.667ZM264.667 225.667H297.333V200H264.667V225.667Z" fill="white"/>
<rect x="307" y="134" width="80" height="80" rx="10" fill="white" fill-opacity="0.1"/>
<path fill-rule="evenodd" clip-rule="evenodd" d="M344.643 164.667C344.643 168.54 341.54 171.667 337.667 171.667C333.793 171.667 330.667 168.54 330.667 164.667C330.667 160.793 333.793 157.667 337.667 157.667C341.54 157.667 344.643 160.793 344.643 164.667ZM363.31 164.667C363.31 168.54 360.207 171.667 356.333 171.667C352.46 171.667 349.333 168.54 349.333 164.667C349.333 160.793 352.46 157.667 356.333 157.667C360.207 157.667 363.31 160.793 363.31 164.667ZM337.667 176.333C332.23 176.333 321.333 179.063 321.333 184.5V190.333H354V184.5C354 179.063 343.103 176.333 337.667 176.333ZM354.07 176.45C354.887 176.38 355.657 176.333 356.333 176.333C361.77 176.333 372.667 179.063 372.667 184.5V190.333H358.667V184.5C358.667 181.047 356.777 178.41 354.07 176.45Z" fill="white"/>
</svg>
