<svg width="405" height="314" viewBox="0 0 405 314" fill="none" xmlns="http://www.w3.org/2000/svg">
<rect x="116" y="35" width="80" height="80" rx="10" fill="white" fill-opacity="0.1"/>
<path fill-rule="evenodd" clip-rule="evenodd" d="M155.977 51.6667C143.097 51.6667 132.667 62.12 132.667 75C132.667 87.88 143.097 98.3334 155.977 98.3334C168.88 98.3334 179.333 87.88 179.333 75C179.333 62.12 168.88 51.6667 155.977 51.6667ZM156 93.6667C145.687 93.6667 137.333 85.3133 137.333 75C137.333 64.6867 145.687 56.3333 156 56.3333C166.313 56.3333 174.667 64.6867 174.667 75C174.667 85.3133 166.313 93.6667 156 93.6667ZM153.667 63.3333H157.167V75.5833L167.667 81.8133L165.917 84.6833L153.667 77.3333V63.3333Z" fill="white"/>
<rect x="312" y="177" width="80" height="80" rx="10" fill="white" fill-opacity="0.1"/>
<path fill-rule="evenodd" clip-rule="evenodd" d="M363.667 196H335.667C333.077 196 331 198.1 331 200.667V233.333C331 235.9 333.077 238 335.667 238H368.333C370.9 238 373 235.9 373 233.333V205.333L363.667 196ZM352 233.333C348.127 233.333 345 230.207 345 226.333C345 222.46 348.127 219.333 352 219.333C355.873 219.333 359 222.46 359 226.333C359 230.207 355.873 233.333 352 233.333ZM335.667 210H359V200.667H335.667V210Z" fill="white"/>
<rect x="239" y="47" width="80" height="80" rx="10" fill="white" fill-opacity="0.1"/>
<path d="M279 66V90.6167C277.623 89.8233 276.037 89.3333 274.333 89.3333C269.177 89.3333 265 93.51 265 98.6667C265 103.823 269.177 108 274.333 108C279.49 108 283.667 103.823 283.667 98.6667V75.3333H293V66H279Z" fill="white"/>
<rect x="12" y="115" width="80" height="80" rx="10" fill="white" fill-opacity="0.1"/>
<path d="M52 176.817L48.6166 173.737C36.6 162.84 28.6666 155.653 28.6666 146.833C28.6666 139.647 34.3133 134 41.5 134C45.56 134 49.4566 135.89 52 138.877C54.5433 135.89 58.44 134 62.5 134C69.6866 134 75.3333 139.647 75.3333 146.833C75.3333 155.653 67.4 162.84 55.3833 173.76L52 176.817Z" fill="white"/>
<rect x="171" y="97" width="80" height="80" rx="10" fill="white" fill-opacity="0.1"/>
<path d="M211 125.333C198.12 125.333 187.667 130.56 187.667 137C187.667 142.227 194.527 146.637 204 148.13V155.667L213.333 146.333L204 137V143.37C196.65 142.063 192.333 138.937 192.333 137C192.333 134.527 199.427 130 211 130C222.573 130 229.667 134.527 229.667 137C229.667 138.703 226.26 141.41 220.333 142.903V147.687C228.57 145.89 234.333 141.783 234.333 137C234.333 130.56 223.88 125.333 211 125.333Z" fill="white"/>
<rect x="246" y="198" width="80" height="80" rx="10" fill="white" fill-opacity="0.1"/>
<path fill-rule="evenodd" clip-rule="evenodd" d="M302.333 219.333H300V214.667H295.333V219.333H276.667V214.667H272V219.333H269.667C267.077 219.333 265.023 221.433 265.023 224L265 256.667C265 259.233 267.077 261.333 269.667 261.333H302.333C304.9 261.333 307 259.233 307 256.667V224C307 221.433 304.9 219.333 302.333 219.333ZM274.333 235.667V240.333H279V235.667H274.333ZM288.333 235.667H283.667V240.333H288.333V235.667ZM297.667 235.667V240.333H293V235.667H297.667ZM269.667 256.667H302.333V231H269.667V256.667Z" fill="white"/>
<rect x="76" y="165" width="80" height="80" rx="10" fill="white" fill-opacity="0.1"/>
<path fill-rule="evenodd" clip-rule="evenodd" d="M113.643 195.667C113.643 199.54 110.54 202.667 106.667 202.667C102.793 202.667 99.6667 199.54 99.6667 195.667C99.6667 191.793 102.793 188.667 106.667 188.667C110.54 188.667 113.643 191.793 113.643 195.667ZM132.31 195.667C132.31 199.54 129.207 202.667 125.333 202.667C121.46 202.667 118.333 199.54 118.333 195.667C118.333 191.793 121.46 188.667 125.333 188.667C129.207 188.667 132.31 191.793 132.31 195.667ZM106.667 207.333C101.23 207.333 90.3334 210.063 90.3334 215.5V221.333H123V215.5C123 210.063 112.103 207.333 106.667 207.333ZM123.07 207.45C123.887 207.38 124.657 207.333 125.333 207.333C130.77 207.333 141.667 210.063 141.667 215.5V221.333H127.667V215.5C127.667 212.047 125.777 209.41 123.07 207.45Z" fill="white"/>
</svg>
