<svg width="207" height="40" viewBox="0 0 207 40" fill="none" xmlns="http://www.w3.org/2000/svg">
<path d="M0 20C0 8.95431 8.9543 0 20 0H187C198.046 0 207 8.95431 207 20C207 31.0457 198.046 40 187 40H20C8.9543 40 0 31.0457 0 20Z" fill="#1ED760"/>
<path d="M25.2416 14.9785H29.2474C30.0404 14.9785 30.6306 15.0127 31.0179 15.0811C31.4099 15.1449 31.7585 15.2816 32.0638 15.4912C32.3737 15.7008 32.6312 15.9811 32.8363 16.332C33.0414 16.6784 33.1439 17.068 33.1439 17.501C33.1439 17.9704 33.0163 18.401 32.7611 18.793C32.5104 19.1849 32.1686 19.4788 31.7357 19.6748C32.3464 19.8525 32.8158 20.1556 33.1439 20.584C33.472 21.0124 33.6361 21.516 33.6361 22.0947C33.6361 22.5505 33.529 22.9948 33.3148 23.4277C33.1052 23.8561 32.8158 24.2002 32.4466 24.46C32.0821 24.7152 31.6309 24.8724 31.0931 24.9316C30.7559 24.9681 29.9424 24.9909 28.6527 25H25.2416V14.9785ZM27.265 16.6465V18.9639H28.5912C29.3796 18.9639 29.8695 18.9525 30.0609 18.9297C30.4073 18.8887 30.6784 18.7702 30.8744 18.5742C31.0749 18.3737 31.1752 18.1117 31.1752 17.7881C31.1752 17.4782 31.0886 17.2275 30.9154 17.0361C30.7468 16.8402 30.4938 16.7217 30.1566 16.6807C29.9561 16.6579 29.3796 16.6465 28.4271 16.6465H27.265ZM27.265 20.6318V23.3115H29.138C29.8672 23.3115 30.3298 23.291 30.5257 23.25C30.8265 23.1953 31.0703 23.0632 31.2572 22.8535C31.4486 22.6393 31.5443 22.3545 31.5443 21.999C31.5443 21.6982 31.4714 21.443 31.3255 21.2334C31.1797 21.0238 30.9678 20.8711 30.6898 20.7754C30.4164 20.6797 29.8194 20.6318 28.8988 20.6318H27.265ZM35.9119 25V14.9785H43.3426V16.6738H37.9354V18.8955H42.9666V20.584H37.9354V23.3115H43.534V25H35.9119ZM49.426 14.9785H51.4426V21.3223C51.4426 22.1517 51.3697 22.7897 51.2239 23.2363C51.0279 23.8197 50.6724 24.2891 50.1575 24.6445C49.6425 24.9954 48.9635 25.1709 48.1204 25.1709C47.1314 25.1709 46.3704 24.8952 45.8371 24.3438C45.3039 23.7878 45.0351 22.9743 45.0305 21.9033L46.9377 21.6846C46.9605 22.2588 47.0448 22.6644 47.1907 22.9014C47.4094 23.2614 47.7421 23.4414 48.1887 23.4414C48.6399 23.4414 48.9589 23.3138 49.1457 23.0586C49.3326 22.7988 49.426 22.2633 49.426 21.4521V14.9785ZM54.1628 25V14.9785H61.5934V16.6738H56.1862V18.8955H61.2175V20.584H56.1862V23.3115H61.7848V25H54.1628ZM64.1154 25V15.0605H66.1388V23.3115H71.17V25H64.1154ZM73.1793 25V14.9785H80.6099V16.6738H75.2027V18.8955H80.2339V20.584H75.2027V23.3115H80.8013V25H73.1793ZM83.0977 25V14.9785H85.0664L89.168 21.6709V14.9785H91.0479V25H89.0176L84.9775 18.4648V25H83.0977ZM96.0102 25V16.6738H93.0366V14.9785H101V16.6738H98.0336V25H96.0102ZM102.9 25V14.9785H104.924V19.4287L109.012 14.9785H111.732L107.959 18.8818L111.937 25H109.319L106.564 20.2969L104.924 21.9717V25H102.9ZM113.55 25V14.9785H120.981V16.6738H115.574V18.8955H120.605V20.584H115.574V23.3115H121.172V25H113.55ZM122.58 25V23.1748L127.844 16.6738H123.175V14.9785H130.51V16.5508L125.02 23.3115H130.721V25H122.58ZM132.567 25V14.9785H139.997V16.6738H134.59V18.8955H139.621V20.584H134.59V23.3115H140.189V25H132.567ZM135.137 14.4043L136.08 12.3604H138.234L136.354 14.4043H135.137ZM141.952 21.7393L143.921 21.5479C144.039 22.2087 144.278 22.694 144.638 23.0039C145.003 23.3138 145.493 23.4688 146.108 23.4688C146.76 23.4688 147.25 23.332 147.578 23.0586C147.91 22.7806 148.077 22.457 148.077 22.0879C148.077 21.8509 148.006 21.6504 147.865 21.4863C147.728 21.3177 147.487 21.1719 147.14 21.0488C146.903 20.9668 146.363 20.821 145.52 20.6113C144.436 20.3424 143.674 20.012 143.237 19.6201C142.622 19.0687 142.314 18.3965 142.314 17.6035C142.314 17.0931 142.458 16.6169 142.745 16.1748C143.036 15.7282 143.453 15.3887 143.996 15.1562C144.543 14.9238 145.201 14.8076 145.971 14.8076C147.229 14.8076 148.175 15.0833 148.808 15.6348C149.446 16.1862 149.781 16.9222 149.813 17.8428L147.79 17.9316C147.703 17.4167 147.516 17.0475 147.229 16.8242C146.947 16.5964 146.52 16.4824 145.951 16.4824C145.363 16.4824 144.903 16.6032 144.57 16.8447C144.356 16.9997 144.249 17.207 144.249 17.4668C144.249 17.7038 144.349 17.9066 144.549 18.0752C144.805 18.2894 145.424 18.5127 146.409 18.7451C147.393 18.9775 148.12 19.2191 148.589 19.4697C149.063 19.7158 149.433 20.0553 149.697 20.4883C149.966 20.9167 150.1 21.4476 150.1 22.0811C150.1 22.6553 149.941 23.193 149.622 23.6943C149.303 24.1956 148.852 24.5693 148.268 24.8154C147.685 25.057 146.958 25.1777 146.088 25.1777C144.821 25.1777 143.848 24.8861 143.169 24.3027C142.49 23.7148 142.084 22.8604 141.952 21.7393Z" fill="white"/>
<g clip-path="url(#clip0)">
<path d="M170.999 8C168.626 8 166.305 8.70387 164.332 10.0226C162.358 11.3413 160.82 13.2156 159.912 15.4086C159.004 17.6015 158.766 20.0145 159.229 22.3425C159.692 24.6704 160.836 26.8087 162.514 28.487C164.192 30.1653 166.331 31.3081 168.659 31.771C170.987 32.2339 173.4 31.996 175.593 31.0875C177.786 30.179 179.66 28.6406 180.978 26.6669C182.297 24.6932 183 22.3729 183 19.9993C183 18.4234 182.69 16.8629 182.086 15.407C181.483 13.9511 180.599 12.6283 179.485 11.514C178.371 10.3997 177.048 9.51592 175.592 8.91298C174.136 8.31004 172.575 7.99981 170.999 8ZM176.503 25.3083C176.452 25.3921 176.385 25.4651 176.305 25.5229C176.226 25.5808 176.136 25.6224 176.04 25.6454C175.945 25.6684 175.845 25.6724 175.748 25.6571C175.651 25.6418 175.558 25.6075 175.474 25.5562C172.657 23.8366 169.109 23.4455 164.932 24.3998C164.742 24.435 164.546 24.3954 164.385 24.2894C164.224 24.1833 164.11 24.0189 164.067 23.8307C164.024 23.6425 164.055 23.4449 164.155 23.2794C164.254 23.1138 164.413 22.9931 164.6 22.9425C169.171 21.8965 173.091 22.3464 176.255 24.2794C176.424 24.3832 176.545 24.5497 176.592 24.7426C176.638 24.9355 176.606 25.1389 176.503 25.3083ZM177.972 22.0426C177.908 22.1477 177.823 22.2391 177.724 22.3115C177.624 22.3839 177.511 22.4359 177.391 22.4645C177.271 22.4931 177.147 22.4978 177.025 22.4783C176.904 22.4588 176.787 22.4154 176.682 22.3507C173.46 20.3661 168.542 19.7915 164.732 20.9507C164.494 21.0229 164.238 20.9978 164.019 20.8809C163.8 20.7641 163.636 20.5649 163.564 20.3274C163.492 20.0899 163.517 19.8334 163.634 19.6144C163.751 19.3954 163.95 19.2318 164.187 19.1596C168.542 17.837 173.96 18.4775 177.664 20.753C177.769 20.8173 177.86 20.9017 177.933 21.0013C178.005 21.101 178.057 21.214 178.086 21.3338C178.114 21.4536 178.119 21.5779 178.099 21.6996C178.08 21.8212 178.037 21.9378 177.972 22.0426ZM178.098 18.6409C174.229 16.3482 167.85 16.1333 164.157 17.2538C163.872 17.3403 163.564 17.31 163.302 17.1695C163.039 17.0291 162.843 16.7901 162.756 16.5051C162.67 16.2201 162.7 15.9124 162.841 15.6497C162.981 15.387 163.22 15.1909 163.505 15.1044C167.744 13.8148 174.791 14.0656 179.244 16.7093C179.371 16.7846 179.482 16.8841 179.57 17.0021C179.658 17.1201 179.722 17.2544 179.759 17.3973C179.795 17.5401 179.803 17.6887 179.782 17.8346C179.761 17.9805 179.711 18.1208 179.636 18.2475C179.561 18.3743 179.461 18.4849 179.343 18.5732C179.225 18.6615 179.091 18.7257 178.948 18.7621C178.66 18.8356 178.354 18.7915 178.098 18.6394V18.6409Z" fill="white"/>
</g>
<defs>
<clipPath id="clip0">
<rect width="24" height="24" fill="white" transform="translate(159 8)"/>
</clipPath>
</defs>
</svg>
