<svg width="207" height="40" viewBox="0 0 207 40" fill="none" xmlns="http://www.w3.org/2000/svg">
<path d="M0 20C0 8.95431 8.9543 0 20 0H187C198.046 0 207 8.95431 207 20C207 31.0457 198.046 40 187 40H20C8.9543 40 0 31.0457 0 20Z" fill="#1ED760"/>
<path d="M25.4577 14.9785H29.4636C30.2566 14.9785 30.8467 15.0127 31.2341 15.0811C31.626 15.1449 31.9747 15.2816 32.28 15.4912C32.5899 15.7008 32.8474 15.9811 33.0525 16.332C33.2575 16.6784 33.3601 17.068 33.3601 17.501C33.3601 17.9704 33.2325 18.401 32.9773 18.793C32.7266 19.1849 32.3848 19.4788 31.9519 19.6748C32.5626 19.8525 33.032 20.1556 33.3601 20.584C33.6882 21.0124 33.8523 21.516 33.8523 22.0947C33.8523 22.5505 33.7452 22.9948 33.531 23.4277C33.3213 23.8561 33.032 24.2002 32.6628 24.46C32.2982 24.7152 31.8471 24.8724 31.3093 24.9316C30.9721 24.9681 30.1586 24.9909 28.8689 25H25.4577V14.9785ZM27.4812 16.6465V18.9639H28.8073C29.5958 18.9639 30.0857 18.9525 30.2771 18.9297C30.6234 18.8887 30.8946 18.7702 31.0905 18.5742C31.2911 18.3737 31.3913 18.1117 31.3913 17.7881C31.3913 17.4782 31.3047 17.2275 31.1316 17.0361C30.9629 16.8402 30.71 16.7217 30.3728 16.6807C30.1723 16.6579 29.5958 16.6465 28.6433 16.6465H27.4812ZM27.4812 20.6318V23.3115H29.3542C30.0834 23.3115 30.5459 23.291 30.7419 23.25C31.0427 23.1953 31.2865 23.0632 31.4734 22.8535C31.6648 22.6393 31.7605 22.3545 31.7605 21.999C31.7605 21.6982 31.6876 21.443 31.5417 21.2334C31.3959 21.0238 31.184 20.8711 30.906 20.7754C30.6325 20.6797 30.0355 20.6318 29.115 20.6318H27.4812ZM36.1281 25V14.9785H43.5587V16.6738H38.1515V18.8955H43.1828V20.584H38.1515V23.3115H43.7502V25H36.1281ZM49.6422 14.9785H51.6588V21.3223C51.6588 22.1517 51.5859 22.7897 51.44 23.2363C51.2441 23.8197 50.8886 24.2891 50.3736 24.6445C49.8587 24.9954 49.1796 25.1709 48.3365 25.1709C47.3476 25.1709 46.5865 24.8952 46.0533 24.3438C45.5201 23.7878 45.2512 22.9743 45.2467 21.9033L47.1539 21.6846C47.1767 22.2588 47.261 22.6644 47.4068 22.9014C47.6256 23.2614 47.9583 23.4414 48.4049 23.4414C48.8561 23.4414 49.1751 23.3138 49.3619 23.0586C49.5488 22.7988 49.6422 22.2633 49.6422 21.4521V14.9785ZM54.3789 25V14.9785H61.8096V16.6738H56.4024V18.8955H61.4336V20.584H56.4024V23.3115H62.001V25H54.3789ZM64.3315 25V15.0605H66.355V23.3115H71.3862V25H64.3315ZM73.3954 25V14.9785H80.8261V16.6738H75.4189V18.8955H80.4501V20.584H75.4189V23.3115H81.0175V25H73.3954ZM83.3138 25V14.9785H85.2826L89.3841 21.6709V14.9785H91.264V25H89.2337L85.1937 18.4648V25H83.3138ZM96.2264 25V16.6738H93.2527V14.9785H101.217V16.6738H98.2498V25H96.2264ZM103.116 25V14.9785H105.14V19.4287L109.228 14.9785H111.948L108.175 18.8818L112.154 25H109.535L106.781 20.2969L105.14 21.9717V25H103.116ZM113.766 25V14.9785H121.197V16.6738H115.79V18.8955H120.821V20.584H115.79V23.3115H121.388V25H113.766ZM122.796 25V23.1748L128.06 16.6738H123.391V14.9785H130.726V16.5508L125.236 23.3115H130.938V25H122.796ZM132.783 25V14.9785H140.213V16.6738H134.806V18.8955H139.837V20.584H134.806V23.3115H140.405V25H132.783ZM135.353 14.4043L136.296 12.3604H138.45L136.57 14.4043H135.353ZM142.168 21.7393L144.137 21.5479C144.255 22.2087 144.494 22.694 144.854 23.0039C145.219 23.3138 145.709 23.4688 146.324 23.4688C146.976 23.4688 147.466 23.332 147.794 23.0586C148.127 22.7806 148.293 22.457 148.293 22.0879C148.293 21.8509 148.222 21.6504 148.081 21.4863C147.944 21.3177 147.703 21.1719 147.356 21.0488C147.119 20.9668 146.579 20.821 145.736 20.6113C144.652 20.3424 143.891 20.012 143.453 19.6201C142.838 19.0687 142.53 18.3965 142.53 17.6035C142.53 17.0931 142.674 16.6169 142.961 16.1748C143.253 15.7282 143.67 15.3887 144.212 15.1562C144.759 14.9238 145.417 14.8076 146.188 14.8076C147.445 14.8076 148.391 15.0833 149.024 15.6348C149.662 16.1862 149.997 16.9222 150.029 17.8428L148.006 17.9316C147.919 17.4167 147.732 17.0475 147.445 16.8242C147.163 16.5964 146.737 16.4824 146.167 16.4824C145.579 16.4824 145.119 16.6032 144.786 16.8447C144.572 16.9997 144.465 17.207 144.465 17.4668C144.465 17.7038 144.565 17.9066 144.766 18.0752C145.021 18.2894 145.641 18.5127 146.625 18.7451C147.609 18.9775 148.336 19.2191 148.806 19.4697C149.28 19.7158 149.649 20.0553 149.913 20.4883C150.182 20.9167 150.316 21.4476 150.316 22.0811C150.316 22.6553 150.157 23.193 149.838 23.6943C149.519 24.1956 149.068 24.5693 148.484 24.8154C147.901 25.057 147.174 25.1777 146.304 25.1777C145.037 25.1777 144.064 24.8861 143.385 24.3027C142.706 23.7148 142.3 22.8604 142.168 21.7393Z" fill="black"/>
<path d="M176.672 24.718C173.44 22.589 169.377 22.072 164.596 23.186C163.636 23.409 163.96 24.866 164.936 24.647C172.628 22.859 175.483 26.095 176.259 26.095C177.001 26.094 177.292 25.127 176.672 24.718Z" fill="black"/>
<path d="M164.257 20.8959C168.558 19.8779 173.441 20.4699 177.001 22.4379C177.867 22.9169 178.593 21.6039 177.727 21.1259C173.852 18.984 168.56 18.338 163.912 19.437C162.948 19.664 163.289 21.1229 164.257 20.8959Z" fill="black"/>
<path d="M163.689 16.994C168.219 15.608 174.574 16.368 178.158 18.724C178.981 19.265 179.812 18.016 178.982 17.471C175.002 14.8541 168.24 14.0331 163.25 15.559C162.298 15.85 162.746 17.285 163.689 16.994Z" fill="black"/>
<path d="M171 32C177.617 32 183 26.617 183 20C183 13.383 177.617 8 171 8C164.383 8 159 13.383 159 20C159 26.617 164.383 32 171 32ZM171 9.5C176.79 9.5 181.5 14.21 181.5 20C181.5 25.79 176.79 30.5 171 30.5C165.21 30.5 160.5 25.79 160.5 20C160.5 14.21 165.21 9.5 171 9.5Z" fill="black"/>
</svg>
