<svg viewBox="0 0 43 49" fill="none" xmlns="http://www.w3.org/2000/svg">
<circle cx="22.1764" cy="28.1764" r="20.6824" fill="url(#paint0_radial)" stroke="black" stroke-width="0.282353" stroke-linecap="round" stroke-linejoin="round"/>
<path d="M30.1642 11.8306C32.9524 11.4895 39.2277 13.8495 42.023 26.0189C42.0558 26.1601 42.0367 26.4071 42.023 26.513C40.8583 22.2071 38.176 19.2424 36.7289 17.7954C35.5713 16.6377 32.176 15.1954 30.623 14.6189C28.223 12.8401 29.3171 12.0189 30.1642 11.8306Z" fill="#FF9C06" stroke="#FF9C06" stroke-width="0.0705882" stroke-linecap="round" stroke-linejoin="round"/>
<path d="M15.546 6.90774C17.1272 5.12892 19.0283 4.30774 19.7813 4.11951L19.9577 5.63715C19.3577 5.66068 17.8754 6.03245 16.746 7.33127C16.5342 7.56019 15.8989 8.88421 14.8754 10.6842C13.8519 12.4842 11.4519 13.4372 9.4754 15.0254C7.49893 16.6136 0.404809 19.4372 1.0401 19.1548C1.6754 18.8724 3.82834 14.5313 4.25187 13.4372C4.6754 12.343 7.18128 8.84892 9.86363 8.46068C12.0095 8.1501 14.546 7.29598 15.546 6.90774Z" fill="#1ED760"/>
<path d="M15.546 6.90774C17.1272 5.12892 19.0283 4.30774 19.7813 4.11951L19.9577 5.63715C19.3577 5.66068 17.8754 6.03245 16.746 7.33127M15.546 6.90774L16.746 7.33127M15.546 6.90774C14.546 7.29598 12.0095 8.1501 9.86363 8.46068C7.18128 8.84892 4.6754 12.343 4.25187 13.4372C3.82834 14.5313 1.6754 18.8724 1.0401 19.1548C0.404809 19.4372 7.49893 16.6136 9.4754 15.0254C11.4519 13.4372 13.8519 12.4842 14.8754 10.6842C15.8989 8.88421 16.5342 7.56019 16.746 7.33127" stroke="black" stroke-width="0.494118" stroke-linejoin="round"/>
<path d="M2.31071 18.1666C5.3813 13.9666 15.5813 7.33127 15.9342 7.11951L16.3225 7.36657C8.4166 11.9407 3.67542 16.543 2.31071 18.1666Z" fill="black" stroke="black" stroke-width="0.0705882" stroke-linejoin="round"/>
<path d="M23.593 1.43713L23.3107 11.2489C23.3015 11.5665 20.593 12.1312 20.6989 12.0607C20.8048 11.9901 19.4989 2.49595 19.6048 2.07242C19.7107 1.64889 22.2872 1.11948 22.8519 1.0136C23.3036 0.92889 23.5342 1.26065 23.593 1.43713Z" fill="#1ED760" stroke="black" stroke-width="0.494118"/>
<path d="M18.9695 13.0841C21.6519 11.6018 23.6636 12.0606 24.5107 12.4488C23.6401 11.59 21.313 10.5147 18.9695 13.0841Z" fill="black" stroke="black" stroke-width="0.141176" stroke-linejoin="round"/>
<path d="M23.1342 11.9547C23.2048 11.4605 23.833 10.5005 25.7813 10.6135C24.537 10.0705 23.4815 10.7149 22.8872 11.3375C22.7398 11.4919 22.6207 11.6449 22.5342 11.7782L23.1342 11.9547Z" fill="black"/>
<path d="M20.5225 11.0017C20.2166 10.7429 19.2378 10.4477 17.7695 11.3375C18.9272 10.166 20.0872 10.2255 20.5225 10.4017V11.0017Z" fill="black"/>
<path d="M23.1342 11.9547C23.2048 11.4605 23.833 10.5005 25.7813 10.6135C24.537 10.0705 23.4815 10.7149 22.8872 11.3375C22.7398 11.4919 22.6207 11.6449 22.5342 11.7782L23.1342 11.9547Z" stroke="black" stroke-width="0.141176" stroke-linejoin="round"/>
<path d="M20.5225 11.0017C20.2166 10.7429 19.2378 10.4477 17.7695 11.3375C18.9272 10.166 20.0872 10.2255 20.5225 10.4017V11.0017Z" stroke="black" stroke-width="0.141176" stroke-linejoin="round"/>
<path d="M9.4295 30.6209C9.11255 30.6196 8.80386 30.5106 8.54645 30.3093C8.40109 30.2038 8.2781 30.0658 8.1857 29.9044C8.09329 29.743 8.03361 29.5619 8.01065 29.3734C7.98768 29.1848 8.00196 28.9931 8.05253 28.8111C8.1031 28.629 8.1888 28.4608 8.30388 28.3178C9.44231 27.0665 10.7314 25.9892 12.1359 25.1154C14.8118 23.3413 17.8366 22.2853 20.961 22.0347C26.0658 21.7022 30.9799 23.762 35.5668 28.1901C35.7002 28.3123 35.8079 28.4642 35.8826 28.6356C35.9573 28.807 35.9973 28.9939 35.9999 29.1836C36.0025 29.3733 35.9676 29.5614 35.8975 29.7351C35.8275 29.9088 35.724 30.0642 35.5941 30.1905C35.318 30.4614 34.961 30.6138 34.5894 30.6192C34.2179 30.6247 33.8572 30.4829 33.5745 30.2202C29.6226 26.4064 25.4744 24.6019 21.2472 24.8542C18.6061 25.0613 16.0473 25.945 13.7794 27.4333C12.6074 28.166 11.5234 29.0543 10.5524 30.0778C10.4123 30.2512 10.2394 30.3895 10.0456 30.4833C9.85176 30.5771 9.64158 30.624 9.4295 30.6209ZM13.8148 33.6808C14.1419 33.3069 17.1453 30.0273 21.4598 29.8225C24.4033 29.689 27.3686 31.0097 30.2794 33.7669C30.5638 34.0277 30.9257 34.1668 31.2974 34.1581C31.6691 34.1493 32.0252 33.9934 32.299 33.7194C32.4263 33.5918 32.5272 33.4361 32.595 33.2626C32.6628 33.0892 32.6958 32.902 32.6919 32.7136C32.6881 32.5252 32.6474 32.3398 32.5726 32.1698C32.4978 31.9999 32.3906 31.8492 32.2581 31.7279C28.7559 28.4187 25.0792 26.8308 21.3289 27C15.9407 27.2463 12.3349 31.0601 11.6589 31.8199C11.5367 31.9554 11.4424 32.1179 11.3825 32.2963C11.3226 32.4747 11.2984 32.665 11.3116 32.8545C11.3247 33.0439 11.3749 33.2281 11.4588 33.3947C11.5427 33.5613 11.6583 33.7064 11.7979 33.8203C12.066 34.0469 12.3961 34.1692 12.7355 34.1676C12.9363 34.1699 13.1354 34.128 13.3208 34.0443C13.5063 33.9607 13.6743 33.837 13.8148 33.6808ZM17.208 37.2987C17.4806 36.8417 19.1567 35.15 21.378 34.9244C23.2586 34.7255 25.1419 35.607 26.9761 37.551C27.2478 37.8273 27.6025 37.9866 27.9741 37.9992C28.3457 38.0118 28.7088 37.8767 28.9957 37.6193C29.1312 37.4996 29.2415 37.3498 29.3194 37.1798C29.3972 37.0098 29.4407 36.8236 29.4469 36.6338C29.4531 36.444 29.4218 36.2549 29.3553 36.0793C29.2888 35.9037 29.1884 35.7457 29.0611 35.6159C25.9732 32.3304 23.0133 31.8912 21.0836 32.09C17.8131 32.4402 15.4119 34.7612 14.766 35.8415C14.6699 36.0009 14.6059 36.1807 14.5784 36.369C14.5508 36.5573 14.5603 36.7498 14.6062 36.9339C14.652 37.1179 14.7332 37.2892 14.8444 37.4365C14.9556 37.5839 15.0942 37.7038 15.2511 37.7884C15.4753 37.9207 15.7266 37.9891 15.9815 37.9873C16.2222 37.9912 16.46 37.9304 16.674 37.8103C16.8879 37.6902 17.0713 37.5145 17.208 37.2987Z" fill="black"/>
<defs>
<radialGradient id="paint0_radial" cx="0" cy="0" r="1" gradientUnits="userSpaceOnUse" gradientTransform="translate(22.1764 28.1764) rotate(91.8051) scale(29.1321)">
<stop stop-color="#FEB00D"/>
<stop offset="1" stop-color="#EE581B"/>
</radialGradient>
</defs>
</svg>
