<svg width="72" height="40" viewBox="0 0 72 40" fill="none" xmlns="http://www.w3.org/2000/svg">
<path d="M0 20C0 8.95431 8.95431 0 20 0H52C63.0457 0 72 8.95431 72 20C72 31.0457 63.0457 40 52 40H20C8.95431 40 0 31.0457 0 20Z" fill="#1ED760"/>
<path fill-rule="evenodd" clip-rule="evenodd" d="M29 11H43C44.1 11 45 11.9 45 13V27C45 28.1 44.1 29 43 29H29C27.89 29 27 28.1 27 27V23H29V27H43V13H29V17H27V13C27 11.9 27.89 11 29 11ZM35.5 25L34.09 23.59L36.67 21H27V19H36.67L34.09 16.41L35.5 15L40.5 20L35.5 25Z" fill="white"/>
</svg>
