<svg width="80" height="80" viewBox="0 0 80 80" fill="none" xmlns="http://www.w3.org/2000/svg">
<rect width="80" height="80" rx="10" fill="white" fill-opacity="0.1"/>
<path fill-rule="evenodd" clip-rule="evenodd" d="M37.6434 30.6667C37.6434 34.54 34.54 37.6667 30.6667 37.6667C26.7934 37.6667 23.6667 34.54 23.6667 30.6667C23.6667 26.7934 26.7934 23.6667 30.6667 23.6667C34.54 23.6667 37.6434 26.7934 37.6434 30.6667ZM56.31 30.6667C56.31 34.54 53.2067 37.6667 49.3334 37.6667C45.46 37.6667 42.3334 34.54 42.3334 30.6667C42.3334 26.7934 45.46 23.6667 49.3334 23.6667C53.2067 23.6667 56.31 26.7934 56.31 30.6667ZM30.6667 42.3334C25.23 42.3334 14.3334 45.0634 14.3334 50.5V56.3334H47V50.5C47 45.0634 36.1034 42.3334 30.6667 42.3334ZM47.0701 42.45C47.8868 42.38 48.6568 42.3334 49.3334 42.3334C54.7701 42.3334 65.6668 45.0634 65.6668 50.5V56.3334H51.6668V50.5C51.6668 47.0467 49.7768 44.41 47.0701 42.45Z" fill="white"/>
</svg>
