<svg width="80" height="80" viewBox="0 0 80 80" fill="none" xmlns="http://www.w3.org/2000/svg">
<rect width="80" height="80" rx="10" fill="white" fill-opacity="0.1"/>
<path d="M40 28.3333C27.12 28.3333 16.6666 33.56 16.6666 40C16.6666 45.2266 23.5266 49.6366 33 51.13V58.6666L42.3333 49.3333L33 40V46.37C25.65 45.0633 21.3333 41.9366 21.3333 40C21.3333 37.5266 28.4266 33 40 33C51.5733 33 58.6666 37.5266 58.6666 40C58.6666 41.7033 55.26 44.41 49.3333 45.9033V50.6866C57.57 48.89 63.3333 44.7833 63.3333 40C63.3333 33.56 52.88 28.3333 40 28.3333Z" fill="white"/>
</svg>
