<svg width="284" height="40" viewBox="0 0 284 40" fill="none" xmlns="http://www.w3.org/2000/svg">
<path d="M0 20C0 8.95431 8.95431 0 20 0H264C275.046 0 284 8.95431 284 20C284 31.0457 275.046 40 264 40H20C8.9543 40 0 31.0457 0 20Z" fill="#1ED760"/>
<path d="M27.8479 25V16.6738H24.8742V14.9785H32.8381V16.6738H29.8713V25H27.8479ZM34.0407 20.0508C34.0407 19.0299 34.1933 18.1732 34.4987 17.4805C34.7265 16.9701 35.0364 16.512 35.4284 16.1064C35.8248 15.7008 36.2578 15.4001 36.7272 15.2041C37.3515 14.9398 38.0716 14.8076 38.8873 14.8076C40.3639 14.8076 41.5442 15.2656 42.4284 16.1816C43.317 17.0977 43.7614 18.3714 43.7614 20.0029C43.7614 21.6208 43.3216 22.8877 42.442 23.8037C41.5625 24.7152 40.3867 25.1709 38.9147 25.1709C37.4245 25.1709 36.2396 24.7174 35.36 23.8105C34.4804 22.8991 34.0407 21.6458 34.0407 20.0508ZM36.1256 19.9824C36.1256 21.1172 36.3877 21.9785 36.9118 22.5664C37.4358 23.1497 38.1012 23.4414 38.9079 23.4414C39.7145 23.4414 40.3753 23.152 40.8903 22.5732C41.4098 21.9899 41.6696 21.1172 41.6696 19.9551C41.6696 18.8066 41.4166 17.9499 40.9108 17.3848C40.4095 16.8197 39.7418 16.5371 38.9079 16.5371C38.0739 16.5371 37.4017 16.8242 36.8913 17.3984C36.3808 17.9681 36.1256 18.8294 36.1256 19.9824ZM48.4639 25L44.8819 14.9785H47.0763L49.6124 22.3955L52.0665 14.9785H54.213L50.6241 25H48.4639ZM64.8423 25H62.6411L61.7661 22.7236H57.7603L56.9331 25H54.7866L58.69 14.9785H60.8296L64.8423 25ZM61.1167 21.0352L59.7359 17.3164L58.3823 21.0352H61.1167ZM58.5738 14.4043L59.5171 12.3604H61.6704L59.7906 14.4043H58.5738ZM66.4892 14.9785H70.4951C71.2881 14.9785 71.8782 15.0127 72.2656 15.0811C72.6575 15.1449 73.0062 15.2816 73.3115 15.4912C73.6214 15.7008 73.8789 15.9811 74.084 16.332C74.289 16.6784 74.3916 17.068 74.3916 17.501C74.3916 17.9704 74.264 18.401 74.0088 18.793C73.7581 19.1849 73.4163 19.4788 72.9834 19.6748C73.594 19.8525 74.0634 20.1556 74.3916 20.584C74.7197 21.0124 74.8838 21.516 74.8838 22.0947C74.8838 22.5505 74.7767 22.9948 74.5625 23.4277C74.3528 23.8561 74.0634 24.2002 73.6943 24.46C73.3297 24.7152 72.8785 24.8724 72.3408 24.9316C72.0035 24.9681 71.1901 24.9909 69.9004 25H66.4892V14.9785ZM68.5127 16.6465V18.9639H69.8388C70.6272 18.9639 71.1172 18.9525 71.3086 18.9297C71.6549 18.8887 71.9261 18.7702 72.122 18.5742C72.3226 18.3737 72.4228 18.1117 72.4228 17.7881C72.4228 17.4782 72.3362 17.2275 72.1631 17.0361C71.9944 16.8402 71.7415 16.7217 71.4043 16.6807C71.2037 16.6579 70.6272 16.6465 69.6748 16.6465H68.5127ZM68.5127 20.6318V23.3115H70.3857C71.1149 23.3115 71.5774 23.291 71.7734 23.25C72.0742 23.1953 72.318 23.0632 72.5048 22.8535C72.6963 22.6393 72.792 22.3545 72.792 21.999C72.792 21.6982 72.719 21.443 72.5732 21.2334C72.4274 21.0238 72.2155 20.8711 71.9375 20.7754C71.664 20.6797 71.067 20.6318 70.1465 20.6318H68.5127ZM77.1664 14.9785H81.1723C81.9652 14.9785 82.5554 15.0127 82.9428 15.0811C83.3347 15.1449 83.6833 15.2816 83.9887 15.4912C84.2986 15.7008 84.5561 15.9811 84.7611 16.332C84.9662 16.6784 85.0688 17.068 85.0688 17.501C85.0688 17.9704 84.9411 18.401 84.6859 18.793C84.4353 19.1849 84.0935 19.4788 83.6605 19.6748C84.2712 19.8525 84.7406 20.1556 85.0688 20.584C85.3969 21.0124 85.5609 21.516 85.5609 22.0947C85.5609 22.5505 85.4538 22.9948 85.2397 23.4277C85.03 23.8561 84.7406 24.2002 84.3715 24.46C84.0069 24.7152 83.5557 24.8724 83.018 24.9316C82.6807 24.9681 81.8673 24.9909 80.5775 25H77.1664V14.9785ZM79.1898 16.6465V18.9639H80.516C81.3044 18.9639 81.7943 18.9525 81.9857 18.9297C82.3321 18.8887 82.6033 18.7702 82.7992 18.5742C82.9997 18.3737 83.1 18.1117 83.1 17.7881C83.1 17.4782 83.0134 17.2275 82.8402 17.0361C82.6716 16.8402 82.4187 16.7217 82.0814 16.6807C81.8809 16.6579 81.3044 16.6465 80.352 16.6465H79.1898ZM79.1898 20.6318V23.3115H81.0629C81.7921 23.3115 82.2546 23.291 82.4506 23.25C82.7514 23.1953 82.9952 23.0632 83.182 22.8535C83.3734 22.6393 83.4691 22.3545 83.4691 21.999C83.4691 21.6982 83.3962 21.443 83.2504 21.2334C83.1046 21.0238 82.8926 20.8711 82.6147 20.7754C82.3412 20.6797 81.7442 20.6318 80.8236 20.6318H79.1898ZM100.811 25H98.6096L97.7346 22.7236H93.7288L92.9016 25H90.7552L94.6585 14.9785H96.7981L100.811 25ZM97.0852 21.0352L95.7044 17.3164L94.3509 21.0352H97.0852ZM101.583 25V23.1748L106.846 16.6738H102.177V14.9785H109.512V16.5508L104.023 23.3115H109.724V25H101.583ZM116.026 25V14.9785H123.457V16.6738H118.049V18.8955H123.081V20.584H118.049V23.3115H123.648V25H116.026ZM125.411 21.7393L127.38 21.5479C127.498 22.2087 127.738 22.694 128.098 23.0039C128.462 23.3138 128.952 23.4688 129.567 23.4688C130.219 23.4688 130.709 23.332 131.037 23.0586C131.37 22.7806 131.536 22.457 131.536 22.0879C131.536 21.8509 131.466 21.6504 131.324 21.4863C131.188 21.3177 130.946 21.1719 130.6 21.0488C130.363 20.9668 129.823 20.821 128.98 20.6113C127.895 20.3424 127.134 20.012 126.696 19.6201C126.081 19.0687 125.773 18.3965 125.773 17.6035C125.773 17.0931 125.917 16.6169 126.204 16.1748C126.496 15.7282 126.913 15.3887 127.455 15.1562C128.002 14.9238 128.661 14.8076 129.431 14.8076C130.689 14.8076 131.634 15.0833 132.268 15.6348C132.906 16.1862 133.241 16.9222 133.273 17.8428L131.249 17.9316C131.162 17.4167 130.976 17.0475 130.689 16.8242C130.406 16.5964 129.98 16.4824 129.41 16.4824C128.822 16.4824 128.362 16.6032 128.029 16.8447C127.815 16.9997 127.708 17.207 127.708 17.4668C127.708 17.7038 127.808 17.9066 128.009 18.0752C128.264 18.2894 128.884 18.5127 129.868 18.7451C130.853 18.9775 131.579 19.2191 132.049 19.4697C132.523 19.7158 132.892 20.0553 133.156 20.4883C133.425 20.9167 133.56 21.4476 133.56 22.0811C133.56 22.6553 133.4 23.193 133.081 23.6943C132.762 24.1956 132.311 24.5693 131.728 24.8154C131.144 25.057 130.417 25.1777 129.547 25.1777C128.28 25.1777 127.307 24.8861 126.628 24.3027C125.949 23.7148 125.543 22.8604 125.411 21.7393ZM134.954 25V23.1748L140.217 16.6738H135.548V14.9785H142.883V16.5508L137.394 23.3115H143.095V25H134.954ZM144.968 25V14.9785H146.991V19.4287L151.079 14.9785H153.8L150.026 18.8818L154.005 25H151.387L148.632 20.2969L146.991 21.9717V25H144.968ZM155.207 20.0508C155.207 19.0299 155.36 18.1732 155.665 17.4805C155.893 16.9701 156.203 16.512 156.595 16.1064C156.992 15.7008 157.425 15.4001 157.894 15.2041C158.518 14.9398 159.238 14.8076 160.054 14.8076C161.531 14.8076 162.711 15.2656 163.595 16.1816C164.484 17.0977 164.928 18.3714 164.928 20.0029C164.928 21.6208 164.488 22.8877 163.609 23.8037C162.729 24.7152 161.553 25.1709 160.081 25.1709C158.591 25.1709 157.406 24.7174 156.527 23.8105C155.647 22.8991 155.207 21.6458 155.207 20.0508ZM157.292 19.9824C157.292 21.1172 157.554 21.9785 158.078 22.5664C158.603 23.1497 159.268 23.4414 160.075 23.4414C160.881 23.4414 161.542 23.152 162.057 22.5732C162.577 21.9899 162.836 21.1172 162.836 19.9551C162.836 18.8066 162.583 17.9499 162.077 17.3848C161.576 16.8197 160.909 16.5371 160.075 16.5371C159.241 16.5371 158.568 16.8242 158.058 17.3984C157.548 17.9681 157.292 18.8294 157.292 19.9824ZM157.655 14.4043V12.7568H159.302V14.4043H157.655ZM160.594 14.4043V12.7568H162.248V14.4043H160.594ZM166.206 25V23.1748L171.47 16.6738H166.801V14.9785H174.136V16.5508L168.646 23.3115H174.347V25H166.206ZM175.782 20.0508C175.782 19.0299 175.935 18.1732 176.24 17.4805C176.468 16.9701 176.778 16.512 177.17 16.1064C177.567 15.7008 178 15.4001 178.469 15.2041C179.093 14.9398 179.813 14.8076 180.629 14.8076C182.106 14.8076 183.286 15.2656 184.17 16.1816C185.059 17.0977 185.503 18.3714 185.503 20.0029C185.503 21.6208 185.063 22.8877 184.184 23.8037C183.304 24.7152 182.128 25.1709 180.656 25.1709C179.166 25.1709 177.981 24.7174 177.102 23.8105C176.222 22.8991 175.782 21.6458 175.782 20.0508ZM177.867 19.9824C177.867 21.1172 178.129 21.9785 178.654 22.5664C179.178 23.1497 179.843 23.4414 180.65 23.4414C181.456 23.4414 182.117 23.152 182.632 22.5732C183.152 21.9899 183.411 21.1172 183.411 19.9551C183.411 18.8066 183.158 17.9499 182.653 17.3848C182.151 16.8197 181.484 16.5371 180.65 16.5371C179.816 16.5371 179.143 16.8242 178.633 17.3984C178.123 17.9681 177.867 18.8294 177.867 19.9824ZM178.23 14.4043V12.7568H179.877V14.4043H178.23ZM181.169 14.4043V12.7568H182.823V14.4043H181.169ZM187.676 25V14.9785H189.7V19.4287L193.788 14.9785H196.508L192.735 18.8818L196.714 25H194.095L191.341 20.2969L189.7 21.9717V25H187.676ZM198.333 25V14.9785H200.357V18.9229H204.321V14.9785H206.345V25H204.321V20.6182H200.357V25H198.333ZM208.593 20.0508C208.593 19.0299 208.746 18.1732 209.051 17.4805C209.279 16.9701 209.589 16.512 209.981 16.1064C210.378 15.7008 210.81 15.4001 211.28 15.2041C211.904 14.9398 212.624 14.8076 213.44 14.8076C214.917 14.8076 216.097 15.2656 216.981 16.1816C217.87 17.0977 218.314 18.3714 218.314 20.0029C218.314 21.6208 217.874 22.8877 216.995 23.8037C216.115 24.7152 214.939 25.1709 213.467 25.1709C211.977 25.1709 210.792 24.7174 209.913 23.8105C209.033 22.8991 208.593 21.6458 208.593 20.0508ZM210.678 19.9824C210.678 21.1172 210.94 21.9785 211.464 22.5664C211.989 23.1497 212.654 23.4414 213.461 23.4414C214.267 23.4414 214.928 23.152 215.443 22.5732C215.962 21.9899 216.222 21.1172 216.222 19.9551C216.222 18.8066 215.969 17.9499 215.463 17.3848C214.962 16.8197 214.294 16.5371 213.461 16.5371C212.627 16.5371 211.954 16.8242 211.444 17.3984C210.933 17.9681 210.678 18.8294 210.678 19.9824ZM211.041 14.4043V12.7568H212.688V14.4043H211.041ZM213.98 14.4043V12.7568H215.634V14.4043H213.98ZM219.592 25V23.1748L224.855 16.6738H220.187V14.9785H227.521V16.5508L222.032 23.3115H227.733V25H219.592Z" fill="black"/>
<path d="M242.49 28.13L244.26 29.9L254.16 20L244.26 10.1L242.49 11.87L250.62 20L242.49 28.13Z" fill="black"/>
</svg>
