<svg width="284" height="40" viewBox="0 0 284 40" fill="none" xmlns="http://www.w3.org/2000/svg">
<path d="M0 20C0 8.95431 8.95431 0 20 0H264C275.046 0 284 8.95431 284 20C284 31.0457 275.046 40 264 40H20C8.9543 40 0 31.0457 0 20Z" fill="#1ED760"/>
<path d="M27.5611 25V16.6738H24.5875V14.9785H32.5514V16.6738H29.5846V25H27.5611ZM33.7539 20.0508C33.7539 19.0299 33.9066 18.1732 34.212 17.4805C34.4398 16.9701 34.7497 16.512 35.1416 16.1064C35.5381 15.7008 35.9711 15.4001 36.4405 15.2041C37.0648 14.9398 37.7849 14.8076 38.6006 14.8076C40.0772 14.8076 41.2575 15.2656 42.1416 16.1816C43.0303 17.0977 43.4747 18.3714 43.4747 20.0029C43.4747 21.6208 43.0349 22.8877 42.1553 23.8037C41.2758 24.7152 40.1 25.1709 38.628 25.1709C37.1377 25.1709 35.9528 24.7174 35.0733 23.8105C34.1937 22.8991 33.7539 21.6458 33.7539 20.0508ZM35.8389 19.9824C35.8389 21.1172 36.101 21.9785 36.625 22.5664C37.1491 23.1497 37.8145 23.4414 38.6211 23.4414C39.4278 23.4414 40.0886 23.152 40.6036 22.5732C41.1231 21.9899 41.3829 21.1172 41.3829 19.9551C41.3829 18.8066 41.1299 17.9499 40.6241 17.3848C40.1228 16.8197 39.4551 16.5371 38.6211 16.5371C37.7872 16.5371 37.1149 16.8242 36.6045 17.3984C36.0941 17.9681 35.8389 18.8294 35.8389 19.9824ZM48.1772 25L44.5952 14.9785H46.7895L49.3257 22.3955L51.7798 14.9785H53.9263L50.3374 25H48.1772ZM64.5556 25H62.3544L61.4794 22.7236H57.4736L56.6464 25H54.4999L58.4032 14.9785H60.5429L64.5556 25ZM60.83 21.0352L59.4491 17.3164L58.0956 21.0352H60.83ZM58.287 14.4043L59.2304 12.3604H61.3837L59.5038 14.4043H58.287ZM66.2025 14.9785H70.2084C71.0013 14.9785 71.5915 15.0127 71.9789 15.0811C72.3708 15.1449 72.7194 15.2816 73.0248 15.4912C73.3347 15.7008 73.5922 15.9811 73.7972 16.332C74.0023 16.6784 74.1048 17.068 74.1048 17.501C74.1048 17.9704 73.9772 18.401 73.722 18.793C73.4714 19.1849 73.1296 19.4788 72.6966 19.6748C73.3073 19.8525 73.7767 20.1556 74.1048 20.584C74.433 21.0124 74.597 21.516 74.597 22.0947C74.597 22.5505 74.4899 22.9948 74.2757 23.4277C74.0661 23.8561 73.7767 24.2002 73.4076 24.46C73.043 24.7152 72.5918 24.8724 72.0541 24.9316C71.7168 24.9681 70.9033 24.9909 69.6136 25H66.2025V14.9785ZM68.2259 16.6465V18.9639H69.5521C70.3405 18.9639 70.8304 18.9525 71.0218 18.9297C71.3682 18.8887 71.6394 18.7702 71.8353 18.5742C72.0358 18.3737 72.1361 18.1117 72.1361 17.7881C72.1361 17.4782 72.0495 17.2275 71.8763 17.0361C71.7077 16.8402 71.4548 16.7217 71.1175 16.6807C70.917 16.6579 70.3405 16.6465 69.3881 16.6465H68.2259ZM68.2259 20.6318V23.3115H70.099C70.8282 23.3115 71.2907 23.291 71.4867 23.25C71.7875 23.1953 72.0313 23.0632 72.2181 22.8535C72.4095 22.6393 72.5052 22.3545 72.5052 21.999C72.5052 21.6982 72.4323 21.443 72.2865 21.2334C72.1407 21.0238 71.9287 20.8711 71.6507 20.7754C71.3773 20.6797 70.7803 20.6318 69.8597 20.6318H68.2259ZM76.8797 14.9785H80.8855C81.6785 14.9785 82.2687 15.0127 82.6561 15.0811C83.048 15.1449 83.3966 15.2816 83.702 15.4912C84.0118 15.7008 84.2693 15.9811 84.4744 16.332C84.6795 16.6784 84.782 17.068 84.782 17.501C84.782 17.9704 84.6544 18.401 84.3992 18.793C84.1486 19.1849 83.8068 19.4788 83.3738 19.6748C83.9845 19.8525 84.4539 20.1556 84.782 20.584C85.1102 21.0124 85.2742 21.516 85.2742 22.0947C85.2742 22.5505 85.1671 22.9948 84.9529 23.4277C84.7433 23.8561 84.4539 24.2002 84.0848 24.46C83.7202 24.7152 83.269 24.8724 82.7313 24.9316C82.394 24.9681 81.5805 24.9909 80.2908 25H76.8797V14.9785ZM78.9031 16.6465V18.9639H80.2293C81.0177 18.9639 81.5076 18.9525 81.699 18.9297C82.0454 18.8887 82.3165 18.7702 82.5125 18.5742C82.713 18.3737 82.8133 18.1117 82.8133 17.7881C82.8133 17.4782 82.7267 17.2275 82.5535 17.0361C82.3849 16.8402 82.132 16.7217 81.7947 16.6807C81.5942 16.6579 81.0177 16.6465 80.0652 16.6465H78.9031ZM78.9031 20.6318V23.3115H80.7762C81.5053 23.3115 81.9679 23.291 82.1639 23.25C82.4646 23.1953 82.7085 23.0632 82.8953 22.8535C83.0867 22.6393 83.1824 22.3545 83.1824 21.999C83.1824 21.6982 83.1095 21.443 82.9637 21.2334C82.8178 21.0238 82.6059 20.8711 82.3279 20.7754C82.0545 20.6797 81.4575 20.6318 80.5369 20.6318H78.9031ZM100.524 25H98.3229L97.4479 22.7236H93.4421L92.6149 25H90.4684L94.3718 14.9785H96.5114L100.524 25ZM96.7985 21.0352L95.4177 17.3164L94.0641 21.0352H96.7985ZM101.296 25V23.1748L106.56 16.6738H101.891V14.9785H109.226V16.5508L103.736 23.3115H109.438V25H101.296ZM115.739 25V14.9785H123.17V16.6738H117.763V18.8955H122.794V20.584H117.763V23.3115H123.361V25H115.739ZM125.124 21.7393L127.093 21.5479C127.212 22.2087 127.451 22.694 127.811 23.0039C128.176 23.3138 128.665 23.4688 129.281 23.4688C129.932 23.4688 130.422 23.332 130.75 23.0586C131.083 22.7806 131.249 22.457 131.249 22.0879C131.249 21.8509 131.179 21.6504 131.038 21.4863C130.901 21.3177 130.659 21.1719 130.313 21.0488C130.076 20.9668 129.536 20.821 128.693 20.6113C127.608 20.3424 126.847 20.012 126.41 19.6201C125.794 19.0687 125.487 18.3965 125.487 17.6035C125.487 17.0931 125.63 16.6169 125.917 16.1748C126.209 15.7282 126.626 15.3887 127.168 15.1562C127.715 14.9238 128.374 14.8076 129.144 14.8076C130.402 14.8076 131.347 15.0833 131.981 15.6348C132.619 16.1862 132.954 16.9222 132.986 17.8428L130.962 17.9316C130.876 17.4167 130.689 17.0475 130.402 16.8242C130.119 16.5964 129.693 16.4824 129.123 16.4824C128.536 16.4824 128.075 16.6032 127.743 16.8447C127.528 16.9997 127.421 17.207 127.421 17.4668C127.421 17.7038 127.522 17.9066 127.722 18.0752C127.977 18.2894 128.597 18.5127 129.581 18.7451C130.566 18.9775 131.293 19.2191 131.762 19.4697C132.236 19.7158 132.605 20.0553 132.87 20.4883C133.138 20.9167 133.273 21.4476 133.273 22.0811C133.273 22.6553 133.113 23.193 132.794 23.6943C132.475 24.1956 132.024 24.5693 131.441 24.8154C130.858 25.057 130.131 25.1777 129.26 25.1777C127.993 25.1777 127.02 24.8861 126.341 24.3027C125.662 23.7148 125.257 22.8604 125.124 21.7393ZM134.667 25V23.1748L139.931 16.6738H135.262V14.9785H142.597V16.5508L137.107 23.3115H142.808V25H134.667ZM144.681 25V14.9785H146.704V19.4287L150.792 14.9785H153.513L149.74 18.8818L153.718 25H151.1L148.345 20.2969L146.704 21.9717V25H144.681ZM154.921 20.0508C154.921 19.0299 155.073 18.1732 155.379 17.4805C155.607 16.9701 155.916 16.512 156.308 16.1064C156.705 15.7008 157.138 15.4001 157.607 15.2041C158.232 14.9398 158.952 14.8076 159.767 14.8076C161.244 14.8076 162.424 15.2656 163.308 16.1816C164.197 17.0977 164.641 18.3714 164.641 20.0029C164.641 21.6208 164.202 22.8877 163.322 23.8037C162.442 24.7152 161.267 25.1709 159.795 25.1709C158.304 25.1709 157.12 24.7174 156.24 23.8105C155.36 22.8991 154.921 21.6458 154.921 20.0508ZM157.006 19.9824C157.006 21.1172 157.268 21.9785 157.792 22.5664C158.316 23.1497 158.981 23.4414 159.788 23.4414C160.594 23.4414 161.255 23.152 161.77 22.5732C162.29 21.9899 162.55 21.1172 162.55 19.9551C162.55 18.8066 162.297 17.9499 161.791 17.3848C161.289 16.8197 160.622 16.5371 159.788 16.5371C158.954 16.5371 158.282 16.8242 157.771 17.3984C157.261 17.9681 157.006 18.8294 157.006 19.9824ZM157.368 14.4043V12.7568H159.015V14.4043H157.368ZM160.307 14.4043V12.7568H161.962V14.4043H160.307ZM165.919 25V23.1748L171.183 16.6738H166.514V14.9785H173.849V16.5508L168.36 23.3115H174.061V25H165.919ZM175.496 20.0508C175.496 19.0299 175.648 18.1732 175.954 17.4805C176.182 16.9701 176.492 16.512 176.883 16.1064C177.28 15.7008 177.713 15.4001 178.182 15.2041C178.807 14.9398 179.527 14.8076 180.342 14.8076C181.819 14.8076 182.999 15.2656 183.883 16.1816C184.772 17.0977 185.216 18.3714 185.216 20.0029C185.216 21.6208 184.777 22.8877 183.897 23.8037C183.018 24.7152 181.842 25.1709 180.37 25.1709C178.88 25.1709 177.695 24.7174 176.815 23.8105C175.936 22.8991 175.496 21.6458 175.496 20.0508ZM177.581 19.9824C177.581 21.1172 177.843 21.9785 178.367 22.5664C178.891 23.1497 179.556 23.4414 180.363 23.4414C181.17 23.4414 181.83 23.152 182.345 22.5732C182.865 21.9899 183.125 21.1172 183.125 19.9551C183.125 18.8066 182.872 17.9499 182.366 17.3848C181.865 16.8197 181.197 16.5371 180.363 16.5371C179.529 16.5371 178.857 16.8242 178.346 17.3984C177.836 17.9681 177.581 18.8294 177.581 19.9824ZM177.943 14.4043V12.7568H179.59V14.4043H177.943ZM180.882 14.4043V12.7568H182.537V14.4043H180.882ZM187.39 25V14.9785H189.413V19.4287L193.501 14.9785H196.222L192.448 18.8818L196.427 25H193.809L191.054 20.2969L189.413 21.9717V25H187.39ZM198.046 25V14.9785H200.07V18.9229H204.035V14.9785H206.058V25H204.035V20.6182H200.07V25H198.046ZM208.307 20.0508C208.307 19.0299 208.459 18.1732 208.765 17.4805C208.992 16.9701 209.302 16.512 209.694 16.1064C210.091 15.7008 210.524 15.4001 210.993 15.2041C211.617 14.9398 212.338 14.8076 213.153 14.8076C214.63 14.8076 215.81 15.2656 216.694 16.1816C217.583 17.0977 218.027 18.3714 218.027 20.0029C218.027 21.6208 217.588 22.8877 216.708 23.8037C215.828 24.7152 214.653 25.1709 213.181 25.1709C211.69 25.1709 210.506 24.7174 209.626 23.8105C208.746 22.8991 208.307 21.6458 208.307 20.0508ZM210.392 19.9824C210.392 21.1172 210.654 21.9785 211.178 22.5664C211.702 23.1497 212.367 23.4414 213.174 23.4414C213.98 23.4414 214.641 23.152 215.156 22.5732C215.676 21.9899 215.936 21.1172 215.936 19.9551C215.936 18.8066 215.683 17.9499 215.177 17.3848C214.675 16.8197 214.008 16.5371 213.174 16.5371C212.34 16.5371 211.668 16.8242 211.157 17.3984C210.647 17.9681 210.392 18.8294 210.392 19.9824ZM210.754 14.4043V12.7568H212.401V14.4043H210.754ZM213.693 14.4043V12.7568H215.348V14.4043H213.693ZM219.305 25V23.1748L224.569 16.6738H219.9V14.9785H227.235V16.5508L221.746 23.3115H227.447V25H219.305Z" fill="white"/>
<path d="M246 14L244.59 15.41L249.17 20L244.59 24.59L246 26L252 20L246 14Z" fill="white"/>
</svg>
